<svg width="26" height="29" viewBox="0 0 26 29" fill="none" xmlns="http://www.w3.org/2000/svg">
<path d="M0 21.5349C0 22.612 0.841501 23.3357 2.27204 23.3357H7.42198C7.53979 25.9106 9.62669 28.25 12.5551 28.25C15.4666 28.25 17.5535 25.9275 17.6882 23.3357H22.8381C24.2687 23.3357 25.1101 22.612 25.1101 21.5349C25.1101 20.2222 23.7301 19.0104 22.5688 17.8491C21.8115 17.0918 21.5086 15.5266 21.4749 14.3485C21.4581 8.72734 20.1117 5.20993 16.5101 3.82988C16.022 2.14687 14.5747 0.75 12.5551 0.75C10.5355 0.75 9.08814 2.14687 8.60005 3.82988C4.99846 5.20993 3.65209 8.72734 3.61841 14.3485C3.60159 15.5266 3.28184 17.0918 2.5413 17.8491C1.36324 19.0104 0 20.2222 0 21.5349ZM2.94523 21.0637V20.8954C3.23134 20.5924 3.95502 19.9192 4.61139 19.1787C5.40239 18.2699 5.99144 16.974 6.02508 14.5168C6.04193 8.22246 7.87636 6.43849 10.1148 5.8158C10.4177 5.74848 10.5691 5.58018 10.5691 5.27724C10.586 3.88034 11.3602 2.95472 12.5551 2.95472C13.7332 2.95472 14.5242 3.88034 14.5242 5.27724C14.5242 5.58018 14.6925 5.74848 14.9786 5.8158C17.2338 6.43849 19.0682 8.22246 19.0851 14.5168C19.1187 16.974 19.7078 18.2699 20.4988 19.1787C21.1551 19.9192 21.8788 20.5924 22.1649 20.8954V21.0637H2.94523ZM9.76133 23.3357H15.3488C15.2479 25.0523 14.1203 26.1463 12.5551 26.1463C10.9731 26.1463 9.86232 25.0523 9.76133 23.3357Z" fill="black"/>
</svg>
