<svg width="25" height="25" viewBox="0 0 25 25" fill="none" xmlns="http://www.w3.org/2000/svg">
<path fill-rule="evenodd" clip-rule="evenodd" d="M12.4999 0.833313C9.277 0.833313 6.66659 3.44373 6.66659 6.66665C6.66659 9.88956 9.277 12.5 12.4999 12.5C15.7228 12.5 18.3333 9.88956 18.3333 6.66665C18.3333 3.44373 15.7228 0.833313 12.4999 0.833313ZM15.4166 6.66665C15.4166 5.06248 14.1041 3.74998 12.4999 3.74998C10.8958 3.74998 9.58325 5.06248 9.58325 6.66665C9.58325 8.27081 10.8958 9.58331 12.4999 9.58331C14.1041 9.58331 15.4166 8.27081 15.4166 6.66665ZM21.2499 19.7916C20.9583 18.7562 16.4374 16.875 12.4999 16.875C8.56242 16.875 4.04159 18.7562 3.74992 19.8062V21.25H21.2499V19.7916ZM0.833252 19.7916C0.833252 15.9125 8.60617 13.9583 12.4999 13.9583C16.3937 13.9583 24.1666 15.9125 24.1666 19.7916V24.1666H0.833252V19.7916Z" fill="black"/>
</svg>
