<svg width="26" height="26" viewBox="0 0 26 26" fill="none" xmlns="http://www.w3.org/2000/svg">
<path fill-rule="evenodd" clip-rule="evenodd" d="M17.525 15.3521L25.8813 23.7083L23.7083 25.8813L15.3521 17.525C13.7917 18.6479 11.9104 19.3333 9.85417 19.3333C4.61875 19.3333 0.375 15.0896 0.375 9.85417C0.375 4.61875 4.61875 0.375 9.85417 0.375C15.0896 0.375 19.3333 4.61875 19.3333 9.85417C19.3333 11.9104 18.6479 13.7917 17.525 15.3521ZM9.85417 3.29167C6.22292 3.29167 3.29167 6.22292 3.29167 9.85417C3.29167 13.4854 6.22292 16.4167 9.85417 16.4167C13.4854 16.4167 16.4167 13.4854 16.4167 9.85417C16.4167 6.22292 13.4854 3.29167 9.85417 3.29167Z" fill="black"/>
</svg>
