<svg width="31" height="31" viewBox="0 0 31 31" fill="none" xmlns="http://www.w3.org/2000/svg">
<path fill-rule="evenodd" clip-rule="evenodd" d="M0.916748 15.5C0.916748 7.45002 7.4355 0.916687 15.4855 0.916687C23.5501 0.916687 30.0834 7.45002 30.0834 15.5C30.0834 23.55 23.5501 30.0834 15.4855 30.0834C7.4355 30.0834 0.916748 23.55 0.916748 15.5ZM21.2897 9.66669H25.5917C24.1917 7.26044 21.9605 5.39377 19.2772 4.47502C20.1522 6.09377 20.823 7.84377 21.2897 9.66669ZM15.5001 3.89169C16.7105 5.64169 17.6584 7.58127 18.2855 9.66669H12.7147C13.3417 7.58127 14.2897 5.64169 15.5001 3.89169ZM3.83341 15.5C3.83341 16.5063 3.97925 17.4834 4.21258 18.4167H9.14175C9.02508 17.4542 8.93758 16.4917 8.93758 15.5C8.93758 14.5084 9.02508 13.5459 9.14175 12.5834H4.21258C3.97925 13.5167 3.83341 14.4938 3.83341 15.5ZM5.40841 21.3334H9.7105C10.1772 23.1563 10.848 24.9063 11.723 26.525C9.03966 25.6063 6.80841 23.7542 5.40841 21.3334ZM5.40841 9.66669H9.7105C10.1772 7.84377 10.848 6.09377 11.723 4.47502C9.03966 5.39377 6.80841 7.24585 5.40841 9.66669ZM15.5001 27.1084C14.2897 25.3584 13.3417 23.4188 12.7147 21.3334H18.2855C17.6584 23.4188 16.7105 25.3584 15.5001 27.1084ZM11.8542 15.5C11.8542 16.4917 11.9563 17.4542 12.0876 18.4167H18.9126C19.0438 17.4542 19.1459 16.4917 19.1459 15.5C19.1459 14.5084 19.0438 13.5313 18.9126 12.5834H12.0876C11.9563 13.5313 11.8542 14.5084 11.8542 15.5ZM19.2772 26.525C20.1522 24.9063 20.823 23.1563 21.2897 21.3334H25.5917C24.1917 23.7396 21.9605 25.6063 19.2772 26.525ZM22.0626 15.5C22.0626 16.4917 21.9751 17.4542 21.8584 18.4167H26.7876C27.0209 17.4834 27.1667 16.5063 27.1667 15.5C27.1667 14.4938 27.0209 13.5167 26.7876 12.5834H21.8584C21.9751 13.5459 22.0626 14.5084 22.0626 15.5Z" fill="black"/>
</svg>
