<svg width="24" height="24" viewBox="0 0 24 24" fill="none" xmlns="http://www.w3.org/2000/svg">
<g id="right">
<path id="Vector" d="M16.8086 12C16.8086 11.7953 16.7306 11.6211 16.566 11.4672L9.01616 4.49917C8.87581 4.35686 8.68997 4.28571 8.47906 4.28571C8.0489 4.28571 7.71436 4.59431 7.71436 5.00964C7.71436 5.20352 7.80541 5.38581 7.93362 5.52451L14.9531 12L7.93362 18.4755C7.80541 18.6142 7.71436 18.7885 7.71436 18.9904C7.71436 19.4057 8.0489 19.7143 8.47906 19.7143C8.68997 19.7143 8.87581 19.6431 9.01616 19.5008L16.566 12.5328C16.7306 12.3789 16.8086 12.2046 16.8086 12Z" fill="#CDCDCD"/>
</g>
</svg>
