<svg width="35" height="35" viewBox="0 0 35 35" fill="none" xmlns="http://www.w3.org/2000/svg">
<path d="M5 24.5349C5 25.612 5.8415 26.3357 7.27204 26.3357H12.422C12.5398 28.9106 14.6267 31.25 17.5551 31.25C20.4666 31.25 22.5535 28.9275 22.6882 26.3357H27.8381C29.2687 26.3357 30.1101 25.612 30.1101 24.5349C30.1101 23.2222 28.7301 22.0104 27.5688 20.8491C26.8115 20.0918 26.5086 18.5266 26.4749 17.3485C26.4581 11.7273 25.1117 8.20993 21.5101 6.82988C21.022 5.14687 19.5746 3.75 17.5551 3.75C15.5355 3.75 14.0881 5.14687 13.6 6.82988C9.99846 8.20993 8.65209 11.7273 8.61841 17.3485C8.60159 18.5266 8.28184 20.0918 7.5413 20.8491C6.36324 22.0104 5 23.2222 5 24.5349ZM7.94523 24.0637V23.8954C8.23134 23.5924 8.95502 22.9192 9.61139 22.1787C10.4024 21.2699 10.9914 19.974 11.0251 17.5168C11.0419 11.2225 12.8764 9.43849 15.1148 8.8158C15.4177 8.74848 15.5691 8.58018 15.5691 8.27724C15.586 6.88034 16.3602 5.95472 17.5551 5.95472C18.7332 5.95472 19.5242 6.88034 19.5242 8.27724C19.5242 8.58018 19.6925 8.74848 19.9786 8.8158C22.2338 9.43849 24.0682 11.2225 24.0851 17.5168C24.1187 19.974 24.7078 21.2699 25.4988 22.1787C26.1551 22.9192 26.8788 23.5924 27.1649 23.8954V24.0637H7.94523ZM14.7613 26.3357H20.3488C20.2479 28.0523 19.1203 29.1463 17.5551 29.1463C15.9731 29.1463 14.8623 28.0523 14.7613 26.3357Z" fill="black"/>
</svg>
